HIERARCHY
ROOT Hips
{
	OFFSET 0.000000 0.000000 0.000000
	CHANNELS 6 Xposition Yposition Zposition Zrotation Yrotation Xrotation 
	JOINT LowerBack
	{
		OFFSET 0.000000 0.000000 0.000000
		CHANNELS 3 Zrotation Yrotation Xrotation
		JOINT Spine
		{
			OFFSET 0.028270 2.035590 -0.193380
			CHANNELS 3 Zrotation Yrotation Xrotation
			JOINT Spine1
			{
				OFFSET 0.056720 2.048850 -0.042750
				CHANNELS 3 Zrotation Yrotation Xrotation
				JOINT Neck
				{
					OFFSET 0.000000 0.000000 0.000000
					CHANNELS 3 Zrotation Yrotation Xrotation
					JOINT Neck1
					{
						OFFSET -0.054170 1.746240 0.172020
						CHANNELS 3 Zrotation Yrotation Xrotation
						JOINT Head
						{
							OFFSET 0.104070 1.761360 -0.123970
							CHANNELS 3 Zrotation Yrotation Xrotation
							End Site
							{
								OFFSET 0.000000 0.000000 0.000000
							}
						}
					}
				}
				JOINT LeftShoulder
				{
					OFFSET 0.000000 0.000000 0.000000
					CHANNELS 3 Zrotation Yrotation Xrotation
					JOINT LeftArm
					{
						OFFSET 3.362410 1.200890 -0.311210
						CHANNELS 3 Zrotation Yrotation Xrotation
						JOINT LeftForeArm
						{
							OFFSET 4.983000 -0.000000 -0.000000
							CHANNELS 3 Zrotation Yrotation Xrotation
							JOINT LeftHand
							{
								OFFSET 3.483560 -0.000000 -0.000000
								CHANNELS 3 Zrotation Yrotation Xrotation
								JOINT LeftFingerBase
								{
									OFFSET 0.000000 0.000000 0.000000
									CHANNELS 3 Zrotation Yrotation Xrotation
									JOINT LeftHandIndex1
									{
										OFFSET 0.715260 -0.000000 -0.000000
										CHANNELS 3 Zrotation Yrotation Xrotation
										End Site
										{
											OFFSET 0.000000 0.000000 0.000000
										}
									}
								}
								JOINT LThumb
								{
									OFFSET 0.000000 0.000000 0.000000
									CHANNELS 3 Zrotation Yrotation Xrotation
									End Site
									{
										OFFSET 0.000000 0.000000 0.000000
									}
								}
							}
						}
					}
				}
				JOINT RightShoulder
				{
					OFFSET 0.000000 0.000000 0.000000
					CHANNELS 3 Zrotation Yrotation Xrotation
					JOINT RightArm
					{
						OFFSET -3.136600 1.374050 -0.404650
						CHANNELS 3 Zrotation Yrotation Xrotation
						JOINT RightForeArm
						{
							OFFSET -5.241900 -0.000000 -0.000000
							CHANNELS 3 Zrotation Yrotation Xrotation
							JOINT RightHand
							{
								OFFSET -3.444170 -0.000000 -0.000000
								CHANNELS 3 Zrotation Yrotation Xrotation
								JOINT RightFingerBase
								{
									OFFSET 0.000000 0.000000 0.000000
									CHANNELS 3 Zrotation Yrotation Xrotation
									JOINT RightHandIndex1
									{
										OFFSET -0.622530 -0.000000 -0.000000
										CHANNELS 3 Zrotation Yrotation Xrotation
										End Site
										{
											OFFSET 0.000000 0.000000 0.000000
										}
									}
								}
								JOINT RThumb
								{
									OFFSET 0.000000 0.000000 0.000000
									CHANNELS 3 Zrotation Yrotation Xrotation
									End Site
									{
										OFFSET 0.000000 0.000000 0.000000
									}
								}
							}
						}
					}
				}
			}
		}
	}
}
}
MOTION
Frames: 6
Frame Time: 0.008333
5.407085 15.965382 0.866085 150.025612 -87.741121 -111.377611 -0.057422 -2.018772 -1.503002 -1.124401 -2.181906 -3.540765 -7.131284 -2.416821 -0.114132 10.515658 -0.971784 -9.410979 -4.798756 -0.334697 -0.905998 0.000000 0.000000 0.000000 -3.825240 5.691049 4.798706 -70.163696 8.518749 14.026332 -3.144861 -22.796041 -0.011090 -5.415013 15.172222 -0.715467 -0.045387 0.007989 0.000000 0.000000 0.000000 0.000000 0.000000 0.000000 0.000000 22.615801 2.412487 3.160732 69.517984 13.279228 0.684147 2.317411 23.066092 -0.006205 -3.700378 2.518212 -0.088423 0.087681 -0.170725 0.000000 0.000000 0.000000 0.000000 0.000000 0.000000 0.000000 
5.278178 16.053882 0.856015 151.330994 -87.704858 -112.923819 -0.166662 -1.986835 -1.698836 -1.141184 -2.149860 -3.576478 -7.140930 -2.384117 -0.085101 10.557105 -1.077308 -9.435629 -4.791273 -0.334995 -0.900367 0.000000 0.000000 0.000000 -3.705405 5.882954 4.758864 -70.362040 9.357981 14.112192 -3.151485 -22.803416 -0.011216 -5.565521 14.882016 -0.721685 -0.044786 0.002780 0.000000 0.000000 0.000000 0.000000 0.000000 0.000000 0.000000 22.613449 2.371185 3.130230 69.483804 13.455022 1.047709 2.347031 23.308271 -0.006052 -3.671813 2.491729 -0.086911 0.088951 -0.170308 0.000000 0.000000 0.000000 0.000000 0.000000 0.000000 0.000000 
5.148686 16.139250 0.846764 152.119028 -87.709944 -113.955493 -0.255382 -1.951111 -1.897037 -1.153557 -2.115161 -3.615189 -7.150616 -2.349069 -0.065970 10.589523 -1.152278 -9.438401 -4.784489 -0.335534 -0.888438 0.000000 0.000000 0.000000 -3.600522 6.032424 4.721647 -70.538473 10.193698 14.149047 -3.154642 -22.856151 -0.011449 -5.656455 14.662767 -0.723004 -0.044331 -0.002274 0.000000 0.000000 0.000000 0.000000 0.000000 0.000000 0.000000 22.600400 2.360148 3.099974 69.454902 13.623408 1.373386 2.377235 23.605433 -0.005734 -3.564668 2.447603 -0.082997 0.089406 -0.169928 0.000000 0.000000 0.000000 0.000000 0.000000 0.000000 0.000000 
5.019182 16.221625 0.838409 152.516121 -87.748813 -114.610299 -0.329364 -1.913646 -2.078464 -1.162628 -2.078894 -3.646251 -7.158331 -2.311788 -0.032975 10.623665 -1.275624 -9.454677 -4.775520 -0.335711 -0.880678 0.000000 0.000000 0.000000 -3.503542 6.210858 4.680198 -70.689874 10.934189 14.193259 -3.155855 -22.912720 -0.011781 -5.697883 14.520770 -0.721423 -0.044090 -0.007075 0.000000 0.000000 0.000000 0.000000 0.000000 0.000000 0.000000 22.592778 2.299658 3.066895 69.416208 13.901938 1.779493 2.411857 23.904071 -0.005320 -3.412123 2.374973 -0.077284 0.089664 -0.169250 0.000000 0.000000 0.000000 0.000000 0.000000 0.000000 0.000000 
4.889335 16.300635 0.830762 152.276978 -87.828145 -114.638781 -0.388458 -1.877539 -2.252077 -1.168793 -2.044535 -3.676260 -7.166201 -2.276402 -0.003531 10.653086 -1.389365 -9.460137 -4.767334 -0.336012 -0.870092 0.000000 0.000000 0.000000 -3.418060 6.367060 4.640796 -70.816541 11.651313 14.205771 -3.154982 -23.005221 -0.012188 -5.695155 14.455584 -0.718140 -0.044010 -0.011665 0.000000 0.000000 0.000000 0.000000 0.000000 0.000000 0.000000 22.584071 2.246810 3.032891 69.373830 14.204887 2.193948 2.445873 24.246080 -0.004847 -3.222565 2.281884 -0.070371 0.089536 -0.168527 0.000000 0.000000 0.000000 0.000000 0.000000 0.000000 0.000000 
4.759488 16.376162 0.823672 151.310165 -87.945783 -113.958259 -0.434529 -1.843946 -2.409869 -1.172818 -2.012907 -3.705118 -7.174940 -2.243840 0.016021 10.676297 -1.477875 -9.448352 -4.760732 -0.336552 -0.855051 0.000000 0.000000 0.000000 -3.343188 6.484516 4.605767 -70.921709 12.365822 14.169659 -3.152686 -23.143430 -0.012642 -5.658941 14.453414 -0.713658 -0.044056 -0.016038 0.000000 0.000000 0.000000 0.000000 0.000000 0.000000 0.000000 22.572652 2.217774 2.998970 69.331761 14.508816 2.588092 2.476495 24.651267 -0.004349 -3.002655 2.161278 -0.062359 0.088962 -0.167821 0.000000 0.000000 0.000000 0.000000 0.000000 0.000000 0.000000 
